<svg xmlns="http://www.w3.org/2000/svg" width="216px" height="29px" viewbox="0 0 216 29">
	<path fill="#003057" d="M10.668 15.352H7.004v-4.52h3.281c2.675 0 3.472.827 3.472 2.26 0 2.038-1.784 2.26-3.09 2.26m10.032 7.93c-.255-2.834-1.434-4.937-3.343-5.667 2.324-.86 3.406-3.345 3.406-5.701 0-4.3-3.439-6.496-7.42-6.496H0v22.737h7.004v-7.931h3.727c2.772 0 2.962 2.262 3.153 4.426.095 1.18.224 2.357.573 3.505h7.007c-.639-1.051-.67-3.76-.765-4.874M73.579 28.155h6.304V5.418h-6.304z"/>
	<path fill="#003573" d="M72.986 18.713v2.325a10.885 10.885 0 000-2.325"/>
	<path fill="#003057" d="M110.743 15.513v-3.887h-3.376V6.633l-6.307 2.511v2.482h-8.853v8.727c0 2.642-1.433 3.185-2.515 3.185-1.848 0-2.071-1.34-2.071-3.249v-8.663h-6.305v11.337c0 3.79 2.706 5.604 5.668 5.604 2.516 0 4.203-.858 5.382-2.514h.063v2.102h6.083V15.513h2.548v7.897c0 4.52 2.962 4.936 5.637 4.936 1.34 0 2.773-.191 4.046-.191v-4.778c-.479.064-.955.097-1.434.097-1.59 0-1.942-.67-1.942-2.199v-5.762h3.376zM127.141 23.983c-2.387 0-2.705-2.357-2.705-4.108 0-1.751.318-4.077 2.705-4.077 2.39 0 2.709 2.326 2.709 4.077s-.318 4.108-2.709 4.108m20.35-12.77c-2.517 0-4.205.86-5.383 2.515h-.064v-2.102h-6.083v6.231c-.726-3.7-3.54-6.644-8.82-6.644-4.845 0-7.614 2.482-8.597 5.751v-5.338h-6.305v16.529h6.305v-5.366c.983 3.277 3.752 5.779 8.597 5.779 5.28 0 8.094-2.968 8.82-6.674v6.26h6.308V19.43c0-2.645 1.432-3.186 2.514-3.186 1.848 0 2.07 1.337 2.07 3.25v8.66h6.307V16.819c0-3.79-2.709-5.605-5.67-5.605"/>
	<path fill="#BF0D3E" d="M112.237 0v9.23L135.566 0z"/>
	<path fill="#003057" d="M64.037 23.983c-2.388 0-2.706-2.357-2.706-4.108 0-1.751.318-4.077 2.706-4.077s2.706 2.326 2.706 4.077-.318 4.108-2.706 4.108m0-12.77c-6.208 0-9.01 4.076-9.01 8.662 0 .253.01.504.026.752-.683-1.305-2.014-2.042-3.467-2.503-2.1-.702-4.49-.83-5.541-1.275-.35-.158-.731-.382-.731-.86 0-1.082 1.017-1.273 1.909-1.273.509 0 1.019.16 1.402.478.413.286.7.7.733 1.24h5.732c-.16-4.233-4.46-5.22-8.025-5.22-3.312 0-7.802 1.081-7.802 5.253 0 2.833 1.942 4.362 6.75 5.19 2.93.511 3.473.797 3.473 1.753 0 .955-1.308 1.273-2.136 1.273-.763 0-1.369-.19-1.687-.478-.472-.409-.728-.883-.763-1.471h-5.967l-.044.155c.205 4.158 4.406 5.679 8.24 5.679 3.916 0 8.197-1.186 8.397-5.51 1.053 3.143 3.8 5.51 8.511 5.51 5.679 0 8.507-3.437 8.95-7.53v-2.325c-.443-4.09-3.271-7.5-8.95-7.5M27.72 17.908c-.065-1.539.622-2.881 2.325-2.881 1.835 0 2.358 1.244 2.358 2.881H27.72zm11.234 3.276v-.885c0-5.502-3.406-9.105-8.974-9.105-2.39 0-4.946.82-6.648 2.588-1.573 1.605-2.457 4.061-2.457 6.321 0 2.39.95 4.683 2.751 6.288 1.9 1.67 4.29 2.194 6.747 2.194 3.886 0 7.423-1.798 8.516-5.696-.003-.052-.007-.102-.009-.155h-6.168c-.347 1.1-1.136 1.56-2.438 1.56-1.965 0-2.62-1.31-2.521-3.11h11.2z"/>
	<path fill="#003573" d="M38.88 22.734c.002.053.006.103.009.155.014-.052.03-.103.043-.155h-.052z"/>
	<path fill="#003057" d="M160.776 5.437h7.007v16.915h10.066v5.829h-17.073zM179.283 28.18h6.307V11.649h-6.307v16.533zm0-18.316h6.306V5.437h-6.307v4.427z"/>
	<path fill="#003057" d="M188.787 15.535h-3.813v-3.887h3.813c-.064-1.624.095-3.44 1.305-4.65 1.37-1.37 2.963-1.561 5.51-1.561.957 0 1.88.095 2.836.127v4.333c-.51-.064-1.02-.224-1.529-.224-1.528 0-2.038.446-1.943 1.975h3.313v3.887h-3.186V28.18h-6.306V15.535z"/>
	<path fill="#003057" d="M203.813 18.051c.287-1.784 1.37-2.771 3.25-2.771 1.624 0 2.77 1.242 2.77 2.771h-6.02zm12.072 3.281c0-6.435-2.834-10.098-9.396-10.098-5.225 0-8.729 3.918-8.729 8.728 0 5.511 3.982 8.633 9.27 8.633 3.76 0 7.23-1.657 8.506-5.224h-5.894c-.51.796-1.625 1.178-2.644 1.178-1.975 0-3.058-1.337-3.217-3.217h12.104z"/>
</svg>